<svg width="18" height="18" viewBox="0 0 18 18" xmlns="http://www.w3.org/2000/svg">
  <path d="M 1 15.4 H 17" stroke="black" stroke-width="1.5" stroke-linecap="round" fill="none"/>
  <path fill="black" stroke="black" stroke-width="0.4" stroke-linejoin="round" d="M 10.5 15.4 L 7.47 15.38 L 7.7 14.83 L 7.79 13.92 L 7.79 12.74 L 7.57 11.92 L 7.13 11.44 L 6.59 11.12 L 4.72 10.48 L 3.85 10.07 L 2.88 9.23 L 2.28 8.41 L 1.78 7.23 L 1.6 6.18 L 1.62 5.34 L 2.76 6.25 L 3.58 6.61 L 4.58 6.79 L 6.45 6.88 L 7.32 7.16 L 8.5 7.98 L 9.0 8.66 L 9.55 7.93 L 10.68 7.16 L 11.55 6.88 L 13.42 6.79 L 14.56 6.57 L 15.24 6.25 L 16.4 5.36 L 16.4 6.13 L 16.22 7.23 L 15.72 8.41 L 15.12 9.23 L 14.15 10.07 L 13.28 10.48 L 11.5 11.07 L 10.87 11.44 L 10.43 11.92 L 10.21 12.74 L 10.21 13.97 L 10.3 14.88 L 10.53 15.38 Z"/>
</svg>
