<svg width="18" height="18" viewBox="0 0 18 18" xmlns="http://www.w3.org/2000/svg">
  <g stroke="black" fill="none" stroke-linecap="round">
    <path d="M 1 13.2 H 17" stroke-width="1.4"/>
    <path d="M 4.9 5.0 V 13.2" stroke-width="1.3"/>
    <path d="M 13.1 5.0 V 13.2" stroke-width="1.3"/>
    <path stroke-width="1.2" d="
      M 1.4 13.2
      C 2.6 12.4, 3.5 9.6, 4.0 6.4
      C 4.2 4.9, 5.0 4.3, 5.7 5.1
      C 6.5 7.4, 7.7 8.8, 9 9.0
      C 10.3 8.8, 11.5 7.4, 12.3 5.1
      C 13.0 4.3, 13.8 4.9, 14.0 6.4
      C 14.5 9.6, 15.4 12.4, 16.6 13.2"/>
    <g stroke-width="0.85">
      <path d="M 3.1 11.2 V 13.2"/>
      <path d="M 6.9 8.3 V 13.2"/>
      <path d="M 11.1 8.3 V 13.2"/>
      <path d="M 14.9 11.2 V 13.2"/>
    </g>
  </g>
</svg>
