<svg width="18" height="18" viewBox="0 0 18 18" xmlns="http://www.w3.org/2000/svg">
  <g stroke="black" stroke-linecap="round">
    <g stroke-width="1.1" fill="none">
      <path d="M 2.1 7.80 C 2.1 10.4, 1.7 13.3, 0.75 15.18"/>
      <path d="M 15.9 7.80 C 15.9 10.4, 16.3 13.3, 17.25 15.18"/>
    </g>
    <g stroke-width="0.8" fill="none">
      <path d="M 4.3 9.20 V 15.18"/>
      <path d="M 6.3 9.90 V 15.18"/>
      <path d="M 11.7 9.91 V 15.18"/>
      <path d="M 13.7 9.20 V 15.18"/>
    </g>
    <path d="M 0.5 15.18 H 17.5" stroke-width="1.5" fill="none"/>
    <path fill="black" stroke-width="0.4" stroke-linejoin="round" d="M 10.72 15.18 L 7.24 15.16 L 7.51 14.53 L 7.61 13.48 L 7.61 12.12 L 7.36 11.18 L 6.85 10.63 L 6.23 10.26 L 4.08 9.53 L 3.08 9.06 L 1.97 8.09 L 1.28 7.15 L 0.71 5.8 L 0.5 4.59 L 0.52 3.62 L 1.83 4.67 L 2.77 5.08 L 3.92 5.29 L 6.07 5.39 L 7.07 5.72 L 8.43 6.66 L 9.0 7.44 L 9.63 6.6 L 10.93 5.72 L 11.93 5.39 L 14.08 5.29 L 15.39 5.04 L 16.17 4.67 L 17.5 3.65 L 17.5 4.53 L 17.29 5.8 L 16.72 7.15 L 16.03 8.09 L 14.92 9.06 L 13.92 9.53 L 11.87 10.21 L 11.15 10.63 L 10.64 11.18 L 10.39 12.12 L 10.39 13.54 L 10.49 14.58 L 10.76 15.16 Z"/>
  </g>
</svg>
