<svg width="18" height="18" viewBox="0 0 18 18" xmlns="http://www.w3.org/2000/svg">
  <g stroke="black" stroke-linecap="round">
    <g stroke-width="1.1" fill="none">
      <path d="M 2.10 7.40 C 2.10 10.00, 1.70 13.12, 0.75 15.18"/>
      <path d="M 15.90 7.40 C 15.90 10.00, 16.30 13.12, 17.25 15.18"/>
    </g>
    <g stroke-width="0.8" fill="none">
      <path d="M 4.30 8.80 V 15.18"/>
      <path d="M 6.30 9.50 V 15.18"/>
      <path d="M 11.70 9.51 V 15.18"/>
      <path d="M 13.70 8.80 V 15.18"/>
    </g>
    <path d="M 0.5 15.18 H 17.5" stroke-width="1.5" fill="none"/>
    <path fill="black" stroke-width="0.4" stroke-linejoin="round" d="M 10.72 15.18 L 7.24 15.16 L 7.51 14.47 L 7.61 13.32 L 7.61 11.83 L 7.36 10.80 L 6.85 10.23 L 6.23 9.86 L 4.08 9.13 L 3.08 8.66 L 1.97 7.69 L 1.28 6.75 L 0.71 5.40 L 0.50 4.19 L 0.52 3.22 L 1.83 4.27 L 2.77 4.68 L 3.92 4.89 L 6.07 4.99 L 7.07 5.32 L 8.43 6.26 L 9.00 7.04 L 9.63 6.20 L 10.93 5.32 L 11.93 4.99 L 14.08 4.89 L 15.39 4.64 L 16.17 4.27 L 17.50 3.25 L 17.50 4.13 L 17.29 5.40 L 16.72 6.75 L 16.03 7.69 L 14.92 8.66 L 13.92 9.13 L 11.87 9.81 L 11.15 10.23 L 10.64 10.80 L 10.39 11.83 L 10.39 13.38 L 10.49 14.52 L 10.76 15.16 Z"/>
  </g>
</svg>
