<svg width="18" height="18" viewBox="0 0 18 18" xmlns="http://www.w3.org/2000/svg">
  <g stroke="black" stroke-linecap="round">
    <g stroke-width="1.1" fill="none">
      <path d="M 2.10 6.60 C 2.10 9.20, 1.70 12.76, 0.75 15.18"/>
      <path d="M 15.90 6.60 C 15.90 9.20, 16.30 12.76, 17.25 15.18"/>
    </g>
    <g stroke-width="0.8" fill="none">
      <path d="M 4.30 8.00 V 15.18"/>
      <path d="M 6.30 8.70 V 15.18"/>
      <path d="M 11.70 8.71 V 15.18"/>
      <path d="M 13.70 8.00 V 15.18"/>
    </g>
    <path d="M 0.5 15.18 H 17.5" stroke-width="1.5" fill="none"/>
    <path fill="black" stroke-width="0.4" stroke-linejoin="round" d="M 10.72 15.18 L 7.24 15.15 L 7.51 14.34 L 7.61 12.99 L 7.61 11.24 L 7.36 10.03 L 6.85 9.43 L 6.23 9.06 L 4.08 8.33 L 3.08 7.86 L 1.97 6.89 L 1.28 5.95 L 0.71 4.60 L 0.50 3.39 L 0.52 2.42 L 1.83 3.47 L 2.77 3.88 L 3.92 4.09 L 6.07 4.19 L 7.07 4.52 L 8.43 5.46 L 9.00 6.24 L 9.63 5.40 L 10.93 4.52 L 11.93 4.19 L 14.08 4.09 L 15.39 3.84 L 16.17 3.47 L 17.50 2.45 L 17.50 3.33 L 17.29 4.60 L 16.72 5.95 L 16.03 6.89 L 14.92 7.86 L 13.92 8.33 L 11.87 9.01 L 11.15 9.43 L 10.64 10.03 L 10.39 11.24 L 10.39 13.07 L 10.49 14.41 L 10.76 15.15 Z"/>
  </g>
</svg>
