<svg width="18" height="18" viewBox="0 0 18 18" xmlns="http://www.w3.org/2000/svg">
  <g stroke="black" stroke-linecap="round">
    <g stroke-width="1.1" fill="none">
      <path d="M 2.10 6.31 C 2.10 8.91, 1.70 12.63, 0.75 15.18"/>
      <path d="M 15.90 6.31 C 15.90 8.91, 16.30 12.63, 17.25 15.18"/>
    </g>
    <g stroke-width="0.8" fill="none">
      <path d="M 4.30 7.71 V 15.18"/>
      <path d="M 6.30 8.41 V 15.18"/>
      <path d="M 11.70 8.42 V 15.18"/>
      <path d="M 13.70 7.71 V 15.18"/>
    </g>
    <path d="M 0.5 15.18 H 17.5" stroke-width="1.5" fill="none"/>
    <path fill="black" stroke-width="0.4" stroke-linejoin="round" d="M 10.72 15.18 L 7.24 15.15 L 7.51 14.30 L 7.61 12.87 L 7.61 11.03 L 7.36 9.75 L 6.85 9.14 L 6.23 8.77 L 4.08 8.04 L 3.08 7.57 L 1.97 6.60 L 1.28 5.66 L 0.71 4.31 L 0.50 3.10 L 0.52 2.13 L 1.83 3.18 L 2.77 3.59 L 3.92 3.80 L 6.07 3.90 L 7.07 4.23 L 8.43 5.17 L 9.00 5.95 L 9.63 5.11 L 10.93 4.23 L 11.93 3.90 L 14.08 3.80 L 15.39 3.55 L 16.17 3.18 L 17.50 2.16 L 17.50 3.04 L 17.29 4.31 L 16.72 5.66 L 16.03 6.60 L 14.92 7.57 L 13.92 8.04 L 11.87 8.72 L 11.15 9.14 L 10.64 9.75 L 10.39 11.03 L 10.39 12.95 L 10.49 14.37 L 10.76 15.15 Z"/>
  </g>
</svg>
