<svg width="18" height="18" viewBox="0 0 18 18" xmlns="http://www.w3.org/2000/svg">
  <g stroke="black" stroke-linecap="round">
    <g stroke-width="1.1" fill="none">
      <path d="M 2.10 6.20 C 2.10 8.80, 1.70 12.58, 0.75 15.18"/>
      <path d="M 15.90 6.20 C 15.90 8.80, 16.30 12.58, 17.25 15.18"/>
    </g>
    <g stroke-width="0.8" fill="none">
      <path d="M 4.30 7.60 V 15.18"/>
      <path d="M 6.30 8.30 V 15.18"/>
      <path d="M 11.70 8.31 V 15.18"/>
      <path d="M 13.70 7.60 V 15.18"/>
    </g>
    <path d="M 0.5 15.18 H 17.5" stroke-width="1.5" fill="none"/>
    <path fill="black" stroke-width="0.4" stroke-linejoin="round" d="M 10.72 15.18 L 7.24 15.15 L 7.51 14.28 L 7.61 12.83 L 7.61 10.95 L 7.36 9.65 L 6.85 9.03 L 6.23 8.66 L 4.08 7.93 L 3.08 7.46 L 1.97 6.49 L 1.28 5.55 L 0.71 4.20 L 0.50 2.99 L 0.52 2.02 L 1.83 3.07 L 2.77 3.48 L 3.92 3.69 L 6.07 3.79 L 7.07 4.12 L 8.43 5.06 L 9.00 5.84 L 9.63 5.00 L 10.93 4.12 L 11.93 3.79 L 14.08 3.69 L 15.39 3.44 L 16.17 3.07 L 17.50 2.05 L 17.50 2.93 L 17.29 4.20 L 16.72 5.55 L 16.03 6.49 L 14.92 7.46 L 13.92 7.93 L 11.87 8.61 L 11.15 9.03 L 10.64 9.65 L 10.39 10.95 L 10.39 12.91 L 10.49 14.35 L 10.76 15.15 Z"/>
  </g>
</svg>
