<svg width="18" height="18" viewBox="0 0 18 18" xmlns="http://www.w3.org/2000/svg">
  <g stroke="black" stroke-linecap="round">
    <g stroke-width="1.1" fill="none">
      <path d="M 2.10 7.00 C 2.10 9.60, 1.70 12.94, 0.75 15.18"/>
      <path d="M 15.90 7.00 C 15.90 9.60, 16.30 12.94, 17.25 15.18"/>
    </g>
    <g stroke-width="0.8" fill="none">
      <path d="M 4.30 8.40 V 15.18"/>
      <path d="M 6.30 9.10 V 15.18"/>
      <path d="M 11.70 9.11 V 15.18"/>
      <path d="M 13.70 8.40 V 15.18"/>
    </g>
    <path d="M 0.5 15.18 H 17.5" stroke-width="1.5" fill="none"/>
    <path fill="black" stroke-width="0.4" stroke-linejoin="round" d="M 10.72 15.18 L 7.24 15.16 L 7.51 14.41 L 7.61 13.15 L 7.61 11.53 L 7.36 10.41 L 6.85 9.83 L 6.23 9.46 L 4.08 8.73 L 3.08 8.26 L 1.97 7.29 L 1.28 6.35 L 0.71 5.00 L 0.50 3.79 L 0.52 2.82 L 1.83 3.87 L 2.77 4.28 L 3.92 4.49 L 6.07 4.59 L 7.07 4.92 L 8.43 5.86 L 9.00 6.64 L 9.63 5.80 L 10.93 4.92 L 11.93 4.59 L 14.08 4.49 L 15.39 4.24 L 16.17 3.87 L 17.50 2.85 L 17.50 3.73 L 17.29 5.00 L 16.72 6.35 L 16.03 7.29 L 14.92 8.26 L 13.92 8.73 L 11.87 9.41 L 11.15 9.83 L 10.64 10.41 L 10.39 11.53 L 10.39 13.23 L 10.49 14.47 L 10.76 15.16 Z"/>
  </g>
</svg>
