<svg width="18" height="18" viewBox="0 0 18 18" xmlns="http://www.w3.org/2000/svg">
  <g stroke="black" stroke-linecap="round">
    <g stroke-width="1.1" fill="none">
      <path d="M 2.10 7.69 C 2.10 10.29, 1.70 13.25, 0.75 15.18"/>
      <path d="M 15.90 7.69 C 15.90 10.29, 16.30 13.25, 17.25 15.18"/>
    </g>
    <g stroke-width="0.8" fill="none">
      <path d="M 4.30 9.09 V 15.18"/>
      <path d="M 6.30 9.79 V 15.18"/>
      <path d="M 11.70 9.80 V 15.18"/>
      <path d="M 13.70 9.09 V 15.18"/>
    </g>
    <path d="M 0.5 15.18 H 17.5" stroke-width="1.5" fill="none"/>
    <path fill="black" stroke-width="0.4" stroke-linejoin="round" d="M 10.72 15.18 L 7.24 15.16 L 7.51 14.51 L 7.61 13.44 L 7.61 12.04 L 7.36 11.08 L 6.85 10.52 L 6.23 10.15 L 4.08 9.42 L 3.08 8.95 L 1.97 7.98 L 1.28 7.04 L 0.71 5.69 L 0.50 4.48 L 0.52 3.51 L 1.83 4.56 L 2.77 4.97 L 3.92 5.18 L 6.07 5.28 L 7.07 5.61 L 8.43 6.55 L 9.00 7.33 L 9.63 6.49 L 10.93 5.61 L 11.93 5.28 L 14.08 5.18 L 15.39 4.93 L 16.17 4.56 L 17.50 3.54 L 17.50 4.42 L 17.29 5.69 L 16.72 7.04 L 16.03 7.98 L 14.92 8.95 L 13.92 9.42 L 11.87 10.10 L 11.15 10.52 L 10.64 11.08 L 10.39 12.04 L 10.39 13.50 L 10.49 14.56 L 10.76 15.16 Z"/>
  </g>
</svg>
