<svg width="1024" height="1024" viewBox="0 0 1024 1024" xmlns="http://www.w3.org/2000/svg">
  <path fill="white" d="M 576.9 690.0 C 554.8 690.0, 466.0 693.2, 445.8 689.1 C 425.7 685.0, 453.5 675.9, 455.8 665.4 C 458.1 654.8, 459.0 641.1, 459.7 626.0 C 460.3 610.9, 461.3 589.4, 459.7 575.0 C 458.1 560.6, 454.9 548.9, 450.2 539.5 C 445.4 530.1, 438.2 524.5, 431.1 518.8 C 424.1 513.0, 425.2 511.8, 407.8 504.9 C 390.4 498.0, 346.7 484.8, 326.9 477.2 C 307.2 469.7, 302.6 468.5, 289.3 459.5 C 276.0 450.5, 258.7 435.2, 247.4 423.2 C 236.0 411.2, 229.3 402.1, 221.4 387.7 C 213.5 373.3, 204.7 352.8, 199.8 336.7 C 194.9 320.6, 193.2 304.9, 192.0 291.3 C 190.8 277.7, 184.5 254.5, 192.9 255.0 C 201.2 255.5, 228.0 285.2, 242.2 294.3 C 256.3 303.5, 264.5 306.0, 277.6 309.9 C 290.7 313.8, 300.2 315.7, 320.9 317.7 C 341.5 319.6, 382.0 318.9, 401.7 321.6 C 421.5 324.2, 424.6 325.7, 439.4 333.7 C 454.1 341.6, 478.3 358.3, 490.4 369.1 C 502.5 379.9, 504.4 398.9, 512.0 398.5 C 519.6 398.2, 523.7 377.8, 535.8 367.0 C 547.9 356.2, 570.2 341.2, 584.6 333.7 C 599.1 326.1, 602.5 324.2, 622.3 321.6 C 642.0 318.9, 681.4 319.9, 703.1 317.7 C 724.8 315.4, 739.3 312.1, 752.4 308.2 C 765.5 304.3, 768.6 303.0, 781.8 294.3 C 795.1 285.6, 823.6 256.7, 832.0 255.8 C 840.4 255.0, 833.3 275.7, 832.0 289.1 C 830.7 302.6, 829.1 320.3, 824.2 336.7 C 819.3 353.1, 810.5 373.3, 802.6 387.7 C 794.7 402.1, 788.0 411.2, 776.6 423.2 C 765.3 435.2, 748.0 450.5, 734.7 459.5 C 721.4 468.5, 716.2 470.0, 697.1 477.2 C 678.0 484.5, 637.5 495.8, 620.1 502.8 C 602.7 509.7, 600.6 512.6, 592.9 518.8 C 585.2 524.9, 578.6 530.1, 573.8 539.5 C 569.1 548.9, 565.9 560.2, 564.3 575.0 C 562.7 589.7, 563.7 612.7, 564.3 628.2 C 565.0 643.6, 565.9 657.4, 568.2 667.5 C 570.5 677.7, 576.7 685.4, 578.2 689.1 C 579.6 692.9, 598.9 690.0, 576.9 690.0 Z"/>
</svg>
